<svg viewBox="0 0 100 100" fill="none" xmlns="http://www.w3.org/2000/svg">
    <!-- Outer octagon -->
    <path d="M 30,10 L 70,10 L 90,30 L 90,70 L 70,90 L 30,90 L 10,70 L 10,30 Z"
          stroke="#a78bfa" stroke-width="3" fill="none"/>
    <!-- Inner octagon -->
    <path d="M 37,22 L 63,22 L 78,37 L 78,63 L 63,78 L 37,78 L 22,63 L 22,37 Z"
          stroke="#a78bfa" stroke-width="3" fill="none"/>
    <!-- Green triangle -->
    <polygon points="50,35 65,65 35,65" fill="#7dd3a7"/>
    <!-- Right dashes (outer) -->
    <line x1="92" y1="38" x2="92" y2="44" stroke="#a78bfa" stroke-width="3" stroke-linecap="round"/>
    <line x1="92" y1="48" x2="92" y2="54" stroke="#a78bfa" stroke-width="3" stroke-linecap="round"/>
    <line x1="92" y1="58" x2="92" y2="64" stroke="#a78bfa" stroke-width="3" stroke-linecap="round"/>
    <!-- Bottom-right dashes (inner) -->
    <line x1="66" y1="80" x2="70" y2="80" stroke="#a78bfa" stroke-width="3" stroke-linecap="round"/>
    <line x1="73" y1="80" x2="77" y2="80" stroke="#a78bfa" stroke-width="3" stroke-linecap="round"/>
    <line x1="80" y1="80" x2="84" y2="80" stroke="#a78bfa" stroke-width="3" stroke-linecap="round"/>
</svg>
